<?xml version="1.0" standalone="no"?>
<!DOCTYPE svg PUBLIC "-//W3C//DTD SVG 20010904//EN"
 "http://www.w3.org/TR/2001/REC-SVG-20010904/DTD/svg10.dtd">
<svg version="1.0" xmlns="http://www.w3.org/2000/svg"
 width="311.000000pt" height="387.000000pt" viewBox="0 0 311.000000 387.000000"
 preserveAspectRatio="xMidYMid meet">

<g transform="translate(0.000000,387.000000) scale(0.100000,-0.100000)"
fill="#000000" stroke="none">
<path d="M1555 3511 c-3 -5 -30 -15 -59 -21 -136 -28 -224 -144 -241 -316 l-7
-70 -114 4 c-122 5 -143 -4 -75 -31 112 -45 158 -51 421 -53 204 -1 268 -5
319 -18 70 -19 116 -14 131 13 15 30 -15 222 -46 292 -37 82 -114 152 -192
175 -31 9 -65 20 -74 25 -23 12 -55 11 -63 0z m-95 -98 c-46 -70 -75 -161 -85
-266 -7 -70 -9 -77 -29 -77 -35 0 -69 23 -73 50 -5 32 16 144 35 190 24 58 69
107 124 134 29 14 55 26 59 26 4 0 -10 -26 -31 -57z m265 38 c100 -46 160
-147 175 -295 4 -50 11 -99 15 -108 10 -26 -35 -44 -83 -32 l-37 9 -7 110 c-8
130 -37 223 -93 291 -39 48 -32 54 30 25z"/>
<path d="M1330 2609 c0 -51 -25 -94 -65 -113 -40 -19 -355 -106 -382 -106 -12
0 -25 5 -28 10 -12 20 -23 8 -58 -67 -101 -217 -173 -465 -208 -713 -16 -112
-16 -448 0 -580 19 -162 67 -392 118 -573 3 -10 9 -17 12 -15 4 2 67 28 140
58 114 48 131 58 128 75 -3 11 -19 73 -36 139 -79 299 -92 608 -35 857 9 39
18 68 21 65 3 -2 43 -121 90 -263 46 -142 92 -264 101 -271 44 -35 468 -272
479 -268 7 3 115 66 240 141 l228 135 89 260 c49 143 93 257 97 253 36 -38 61
-417 40 -603 -14 -118 -50 -292 -80 -390 -11 -35 -17 -68 -13 -71 4 -4 66 -32
137 -62 l130 -56 13 31 c19 45 68 256 91 393 77 462 42 877 -108 1277 -45 119
-107 258 -116 258 -3 0 -14 -5 -25 -12 -16 -10 -49 -5 -192 31 -95 24 -187 50
-205 57 -41 16 -62 50 -70 113 -3 28 -10 51 -14 51 -5 0 -53 -34 -106 -75 -82
-63 -102 -84 -121 -127 l-23 -52 -31 52 c-21 37 -58 75 -124 127 -51 41 -98
75 -104 75 -5 0 -10 -18 -10 -41z m268 -249 c7 0 72 30 144 66 131 65 133 66
163 50 16 -8 111 -36 210 -62 99 -25 182 -48 184 -49 2 -2 -7 -34 -19 -72 -46
-142 -64 -379 -40 -541 9 -64 9 -64 -81 -320 -49 -141 -89 -262 -89 -269 0
-19 -42 -47 -263 -178 l-207 -123 -186 107 c-102 58 -206 118 -232 132 l-47
25 -93 280 -92 279 10 130 c15 178 4 303 -42 459 -11 38 -22 75 -25 82 -3 8 1
14 8 14 24 0 373 101 393 114 15 10 39 1 155 -56 75 -37 142 -68 149 -68z
m-667 -1652 c6 -29 19 -68 26 -87 8 -18 11 -37 6 -41 -11 -10 -234 -102 -238
-98 -5 5 -65 250 -65 264 0 11 26 14 129 14 l129 0 13 -52z m1599 30 c0 -23
-57 -248 -64 -255 -2 -2 -58 19 -124 47 l-120 52 25 76 c13 43 26 83 29 90 2
9 37 12 129 12 123 0 125 0 125 -22z"/>
</g>
</svg>
