<?xml version="1.0" standalone="no"?>
<!DOCTYPE svg PUBLIC "-//W3C//DTD SVG 20010904//EN"
 "http://www.w3.org/TR/2001/REC-SVG-20010904/DTD/svg10.dtd">
<svg version="1.0" xmlns="http://www.w3.org/2000/svg"
 width="720.000000pt" height="720.000000pt" viewBox="0 0 720.000000 720.000000"
 preserveAspectRatio="xMidYMid meet">

<g transform="translate(0.000000,720.000000) scale(0.100000,-0.100000)"
fill="#000000" stroke="none">
<path d="M4030 5301 c-54 -17 -97 -45 -146 -97 l-51 -54 -154 24 c-337 54
-576 60 -674 17 -59 -26 -107 -70 -142 -128 -14 -24 -28 -43 -32 -43 -5 0 -34
9 -67 21 -104 36 -377 99 -431 99 -40 0 -58 -5 -73 -20 -26 -26 -25 -40 10
-145 l30 -89 -69 -71 c-99 -101 -161 -182 -161 -210 0 -41 38 -68 110 -80 215
-35 515 -119 571 -161 92 -67 91 -144 -1 -228 -87 -79 -280 -187 -336 -189
-28 -1 -43 9 -91 57 -32 32 -70 64 -85 72 -16 8 -28 18 -28 22 0 4 34 21 75
37 l75 30 -168 6 c-324 12 -496 93 -525 246 -8 42 9 183 29 237 29 79 29 77 2
67 -59 -22 -321 -158 -403 -208 -279 -172 -516 -403 -638 -623 -90 -162 -129
-315 -130 -500 -1 -476 309 -858 911 -1126 146 -65 430 -162 582 -198 195 -46
236 -55 390 -80 636 -106 1443 -121 2115 -40 842 101 1454 333 1810 688 167
166 244 294 307 511 20 70 23 101 22 245 -1 135 -4 179 -22 242 -20 75 -81
232 -87 226 -2 -2 7 -46 21 -98 31 -120 41 -295 25 -409 -48 -326 -245 -598
-598 -824 -302 -194 -808 -353 -1338 -421 -453 -59 -1102 -69 -1600 -26 -714
62 -1330 237 -1686 477 -157 107 -260 215 -323 339 -160 316 -17 640 363 821
177 84 321 114 574 121 290 7 486 -22 822 -121 178 -52 256 -77 470 -148 256
-86 360 -109 494 -109 139 0 228 32 312 111 85 81 192 175 212 186 32 18 79
16 129 -6 50 -21 157 -46 240 -56 63 -7 235 -51 343 -87 59 -20 72 -28 88 -59
35 -66 38 -66 279 -7 44 10 66 30 73 66 3 15 15 61 26 102 11 42 17 83 13 93
-4 10 -52 53 -107 95 -55 42 -111 85 -124 96 -21 16 -27 17 -55 5 -46 -19
-150 -121 -195 -190 -22 -35 -47 -62 -61 -65 -34 -9 -216 12 -306 36 -158 42
-307 142 -401 269 -34 47 -154 254 -215 371 -19 36 -35 67 -37 69 -2 3 -11 -6
-20 -18 -15 -22 -20 -23 -72 -16 -31 5 -85 9 -121 9 -65 1 -65 1 -68 32 -5 55
11 80 59 87 23 3 55 15 71 27 22 16 44 22 80 22 49 -1 141 -25 166 -45 19 -15
14 -44 -9 -60 -25 -18 -32 -1 90 -215 47 -84 109 -183 136 -220 112 -149 286
-245 485 -268 33 -4 60 -4 60 -1 0 4 -22 30 -49 59 -82 90 -189 227 -307 398
-134 193 -133 190 -76 190 31 0 40 -6 60 -36 l23 -35 35 26 c42 32 86 50 142
59 50 7 54 -3 10 -28 -64 -37 -138 -99 -138 -116 0 -28 259 -367 358 -468 l22
-23 88 88 c48 49 104 97 125 106 20 10 37 19 37 21 0 2 -36 38 -80 82 -54 53
-83 91 -90 114 -23 86 -100 174 -220 255 -95 64 -77 68 45 11 145 -69 277
-194 363 -346 33 -58 36 -57 47 25 15 115 65 288 119 409 14 32 26 62 26 67 0
4 -16 34 -35 66 -35 58 -35 58 -12 65 43 12 56 8 77 -28 l23 -35 31 29 c33 31
90 72 100 72 13 0 4 -17 -27 -51 -18 -20 -41 -52 -51 -71 l-19 -36 31 -51 c66
-107 278 -377 316 -403 6 -4 20 -1 31 8 82 60 172 114 201 120 19 3 34 10 34
15 0 7 -109 136 -157 187 -7 7 -15 29 -18 50 -7 45 -33 99 -50 106 -7 2 -50
33 -95 68 -166 129 -201 143 -455 178 -44 6 -118 20 -164 31 -46 11 -86 17
-89 14 -3 -3 15 -26 41 -52 47 -46 59 -67 33 -57 -38 15 -411 -26 -520 -57
-42 -12 -39 -19 14 -39 45 -18 102 -51 97 -57 -3 -2 -74 -13 -158 -24 -84 -11
-177 -26 -207 -34 -30 -7 -60 -11 -66 -9 -7 3 -23 23 -35 45 -19 32 -22 49
-17 84 8 52 26 69 63 62 54 -10 81 27 47 64 -13 15 -14 24 -5 50 17 49 13 139
-8 185 -23 49 -88 107 -140 122 -43 13 -132 14 -171 3z m-27 -189 c52 -35 110
-68 205 -117 72 -37 85 -51 57 -61 -17 -7 -62 15 -200 97 -126 76 -138 85
-130 98 10 17 23 13 68 -17z m-805 -98 c35 -25 27 -75 -15 -93 -18 -8 -33 -21
-33 -28 0 -8 -11 -25 -25 -38 -23 -24 -31 -25 -134 -25 l-109 0 -7 50 c-4 27
-4 54 0 60 3 5 23 10 43 10 21 0 49 8 62 17 19 13 152 57 190 62 3 1 16 -6 28
-15z m797 -84 c-12 -52 39 -110 96 -110 11 0 34 7 51 16 l31 16 -7 -27 c-4
-15 -10 -41 -13 -57 -5 -27 -9 -29 -38 -24 -26 5 -39 1 -70 -24 -43 -34 -52
-36 -83 -14 -29 20 -52 65 -52 102 0 26 71 152 86 152 3 0 3 -13 -1 -30z
m-663 -138 c48 -27 56 -44 25 -50 -15 -3 -151 80 -163 100 -3 4 -2 13 1 18 4
6 23 0 48 -15 23 -14 63 -38 89 -53z m-262 -83 c0 -22 9 -40 31 -60 35 -33 66
-36 129 -14 23 8 44 15 45 15 2 0 -2 -24 -9 -52 -11 -52 -12 -53 -53 -59 -37
-5 -75 -26 -94 -53 -11 -15 -59 -9 -79 9 -30 27 -53 84 -47 119 5 33 56 125
70 126 4 0 7 -14 7 -31z m2647 -70 c49 -24 54 -41 18 -65 -35 -23 -66 -12
-109 41 l-37 45 42 0 c24 0 62 -9 86 -21z m-879 -379 c24 -11 42 -25 40 -32
-8 -23 -55 -50 -76 -44 -26 9 -93 77 -86 88 9 15 78 8 122 -12z m583 -470 c29
-16 23 -45 -14 -64 -68 -37 -119 7 -61 53 30 23 46 26 75 11z"/>
<path d="M5406 4533 c-26 -70 -60 -199 -69 -266 -7 -43 3 -51 113 -103 49 -24
61 -26 134 -20 87 7 164 23 183 38 9 7 -4 27 -47 71 -67 71 -177 207 -234 290
-22 31 -43 57 -47 57 -4 0 -19 -30 -33 -67z"/>
<path d="M6037 4276 c-60 -31 -128 -79 -170 -120 -29 -30 -69 -44 -202 -72
l-30 -6 30 -14 c64 -30 182 -81 213 -94 34 -13 82 -63 82 -84 0 -8 9 -25 21
-40 33 -42 71 -36 244 39 45 19 64 41 65 71 0 11 11 35 25 54 39 53 34 95 -18
144 -24 23 -65 67 -91 99 -58 69 -73 71 -169 23z m234 -175 c33 -27 16 -55
-37 -59 -69 -5 -100 44 -42 68 35 14 54 12 79 -9z"/>
<path d="M1720 3320 c-94 -18 -152 -80 -158 -169 -8 -112 44 -163 214 -211 89
-25 112 -47 94 -90 -22 -52 -107 -61 -191 -19 -19 10 -41 25 -48 33 -20 24
-29 20 -62 -31 l-30 -48 35 -31 c47 -40 122 -64 205 -64 118 0 201 60 217 157
9 61 -3 109 -39 149 -34 40 -78 61 -179 88 -37 10 -74 26 -83 37 -24 25 -12
67 23 80 38 15 116 1 157 -27 20 -13 40 -24 44 -24 10 0 61 75 61 89 0 15 -61
57 -100 69 -51 15 -120 20 -160 12z"/>
<path d="M3487 3314 c-4 -4 -7 -144 -7 -311 l0 -303 60 0 60 0 -2 308 -3 307
-50 3 c-28 2 -54 0 -58 -4z"/>
<path d="M3846 3263 c-34 -9 -97 -56 -111 -83 -24 -47 -28 -94 -10 -136 26
-63 52 -82 155 -115 104 -32 114 -37 122 -59 11 -30 -10 -59 -49 -69 -50 -13
-105 0 -158 37 l-42 29 -27 -45 -27 -45 22 -23 c53 -56 207 -82 286 -49 73 31
103 77 104 159 2 97 -45 143 -183 182 -84 23 -111 43 -101 72 17 49 93 56 169
16 l49 -26 27 33 c35 42 35 53 -3 80 -56 40 -157 59 -223 42z"/>
<path d="M5675 3246 c-105 -50 -159 -141 -159 -271 0 -72 4 -87 33 -142 51
-96 124 -142 226 -143 28 0 67 5 89 11 47 13 120 79 149 134 29 56 35 185 13
252 -49 148 -215 223 -351 159z m199 -120 c45 -46 60 -93 53 -173 -4 -52 -11
-72 -34 -101 -37 -46 -89 -65 -145 -53 -78 18 -118 79 -118 181 0 115 57 180
157 180 46 0 56 -4 87 -34z"/>
<path d="M2193 3108 c-28 -84 -72 -211 -97 -281 l-46 -128 63 3 62 3 15 43 14
42 112 0 111 0 13 -45 13 -45 58 0 c33 0 59 3 59 8 1 6 -160 477 -181 530 -8
20 -15 22 -77 22 l-67 0 -52 -152z m161 -91 c20 -60 36 -111 36 -113 0 -2 -34
-4 -75 -4 -41 0 -75 3 -75 7 0 5 14 51 31 103 17 52 33 101 35 109 6 20 7 18
48 -102z"/>
<path d="M2650 2980 l0 -280 55 0 55 0 2 177 3 177 92 -140 c152 -231 137
-214 193 -214 29 0 50 5 52 13 3 6 4 131 2 277 l-2 265 -51 3 -51 3 0 -170 c0
-94 -3 -171 -7 -171 -5 0 -57 76 -118 170 l-110 169 -57 1 -58 0 0 -280z"/>
<path d="M4219 3256 c-2 -2 -3 -128 -1 -280 l3 -276 49 0 50 0 0 280 0 280
-48 0 c-27 0 -51 -2 -53 -4z"/>
<path d="M4450 2980 l0 -280 128 0 c160 0 203 13 266 79 133 143 83 395 -92
464 -32 13 -74 17 -172 17 l-130 0 0 -280z m294 145 c44 -33 61 -76 60 -150
-1 -114 -49 -163 -169 -172 l-75 -6 0 183 0 183 75 -6 c59 -4 81 -11 109 -32z"/>
<path d="M5027 3253 c-4 -3 -7 -129 -7 -280 l0 -273 55 0 54 0 3 98 3 97 38 3
38 3 47 -100 47 -101 63 0 c60 0 72 6 53 26 -5 5 -29 48 -54 96 l-46 86 35 21
c64 38 90 138 60 224 -32 89 -74 107 -251 107 -72 0 -135 -3 -138 -7z m239
-103 c54 -21 71 -77 35 -121 -16 -20 -30 -24 -95 -27 l-76 -4 0 74 c0 41 3 78
7 81 10 11 99 8 129 -3z"/>
<path d="M3467 2592 c-10 -10 -14 -22 -10 -25 7 -8 43 21 43 35 0 14 -16 9
-33 -10z"/>
<path d="M6450 2579 c0 -5 5 -7 10 -4 6 3 10 8 10 11 0 2 -4 4 -10 4 -5 0 -10
-5 -10 -11z"/>
<path d="M2709 2548 c0 -2 -1 -54 -2 -116 -2 -101 0 -112 16 -112 14 0 17 9
17 51 l0 50 53 -3 52 -3 3 -47 c2 -34 7 -48 18 -48 11 0 14 21 14 115 0 94 -3
115 -14 115 -11 0 -16 -14 -18 -47 l-3 -48 -50 0 -50 0 -3 48 c-2 33 -7 47
-18 47 -7 0 -14 -1 -15 -2z"/>
<path d="M2970 2435 c0 -108 1 -115 20 -115 19 0 20 7 20 115 0 108 -1 115
-20 115 -19 0 -20 -7 -20 -115z"/>
<path d="M3100 2435 c0 -94 3 -115 14 -115 10 0 16 14 18 43 3 41 4 42 43 45
51 4 75 26 75 68 0 46 -38 74 -101 74 l-49 0 0 -115z m105 40 c0 -28 -3 -30
-35 -30 -32 0 -35 3 -38 33 -3 33 -3 33 35 30 35 -3 38 -5 38 -33z"/>
<path d="M3380 2543 c-54 -22 -77 -110 -45 -173 19 -36 43 -50 88 -50 45 0 84
32 97 79 25 94 -56 177 -140 144z m76 -41 c39 -26 44 -93 9 -127 -29 -30 -55
-32 -85 -7 -30 24 -33 91 -6 121 19 21 61 28 82 13z"/>
<path d="M3601 2435 l-1 -115 49 0 c89 0 130 32 133 103 3 81 -46 127 -135
127 l-45 0 -1 -115z m115 67 c17 -11 34 -48 34 -73 0 -35 -38 -69 -77 -69
l-33 0 0 75 0 75 33 0 c17 0 37 -4 43 -8z"/>
<path d="M3867 2543 c-2 -5 -4 -56 -4 -115 -1 -98 1 -108 18 -108 14 0 19 9
21 43 2 29 8 42 18 42 8 0 25 -19 38 -42 15 -28 30 -43 43 -43 24 0 24 8 -1
40 -25 31 -25 36 0 67 27 34 25 69 -5 98 -19 20 -34 25 -74 25 -27 0 -52 -3
-54 -7z m112 -51 c15 -28 -5 -52 -44 -52 -33 0 -35 2 -35 35 0 33 2 35 35 35
23 0 38 -6 44 -18z"/>
<path d="M4137 2530 c-83 -66 -40 -210 63 -210 93 0 131 120 63 200 -31 37
-86 41 -126 10z m105 -37 c21 -19 24 -89 5 -115 -57 -75 -156 32 -101 110 18
27 69 30 96 5z"/>
<path d="M4380 2435 c0 -107 1 -115 20 -115 17 0 19 8 22 73 l3 72 26 -70 c15
-38 30 -70 35 -72 5 -2 20 31 33 73 28 90 44 86 39 -10 -3 -58 -1 -66 15 -66
15 0 17 12 17 115 0 114 0 115 -24 115 -20 0 -27 -11 -51 -75 -15 -41 -28 -75
-30 -75 -1 0 -15 34 -30 75 -23 65 -30 75 -51 75 -24 0 -24 0 -24 -115z"/>
<path d="M4704 2516 c-26 -26 -34 -42 -34 -69 0 -79 40 -127 106 -127 35 0 47
5 68 31 34 40 41 72 27 119 -25 83 -107 106 -167 46z m120 -28 c35 -49 1 -139
-51 -138 -51 1 -82 85 -49 135 22 33 78 35 100 3z"/>
<path d="M5905 2200 c-3 -5 -1 -10 4 -10 6 0 11 5 11 10 0 6 -2 10 -4 10 -3 0
-8 -4 -11 -10z"/>
</g>
</svg>
