<?xml version="1.0" standalone="no"?>
<!DOCTYPE svg PUBLIC "-//W3C//DTD SVG 20010904//EN"
 "http://www.w3.org/TR/2001/REC-SVG-20010904/DTD/svg10.dtd">
<svg version="1.0" xmlns="http://www.w3.org/2000/svg"
 width="225.000000pt" height="225.000000pt" viewBox="0 0 225.000000 225.000000"
 preserveAspectRatio="xMidYMid meet">

<g transform="translate(0.000000,225.000000) scale(0.100000,-0.100000)"
fill="#000000" stroke="none">
<path d="M1240 1921 c14 -5 18 -10 10 -10 -12 -1 -11 -4 3 -12 14 -8 22 -8 30
1 9 8 8 10 -6 4 -12 -4 -17 -2 -15 7 2 8 -7 14 -22 16 l-25 2 25 -8z"/>
<path d="M1154 1899 c-19 -22 -19 -22 4 -10 12 6 22 16 22 21 0 15 -5 12 -26
-11z"/>
<path d="M1287 1861 c3 -12 0 -28 -7 -36 -11 -13 -10 -14 4 -9 9 3 16 10 16
15 0 5 7 9 15 9 9 0 12 6 8 15 -3 9 -8 13 -11 11 -3 -3 -11 -1 -18 5 -9 8 -11
5 -7 -10z"/>
<path d="M1034 1835 c-3 -8 -13 -11 -22 -7 -14 5 -15 4 -2 -10 12 -13 17 -13
28 -1 7 7 17 11 22 8 5 -3 11 -1 15 5 4 6 12 7 18 4 7 -4 9 -3 5 1 -14 14 -59
14 -64 0z"/>
<path d="M1110 1826 c0 -2 8 -10 18 -17 15 -13 16 -12 3 4 -13 16 -21 21 -21
13z"/>
<path d="M950 1789 c0 -5 5 -7 10 -4 6 3 10 8 10 11 0 2 -4 4 -10 4 -5 0 -10
-5 -10 -11z"/>
<path d="M1111 1784 c0 -11 3 -14 6 -6 3 7 2 16 -1 19 -3 4 -6 -2 -5 -13z"/>
<path d="M1579 1766 c-8 -16 -19 -23 -35 -22 -22 1 -23 2 -7 14 15 11 15 12 0
12 -9 0 -22 -8 -29 -17 -15 -20 -59 -29 -55 -12 1 6 -5 14 -13 16 -13 4 -13 3
0 -6 12 -9 10 -11 -10 -11 -25 -1 -25 -1 -2 -10 12 -5 22 -12 22 -14 0 -3 -6
-3 -14 0 -8 3 -17 0 -21 -6 -4 -7 0 -10 11 -8 12 2 18 -2 16 -10 -1 -8 2 -11
8 -7 6 3 7 11 4 17 -5 8 -1 9 10 5 9 -4 15 -3 12 2 -3 5 12 13 33 18 46 12 82
-3 92 -39 7 -22 7 -22 8 -1 1 12 -9 29 -21 37 -13 10 -17 16 -9 16 8 0 11 3 8
6 -3 4 -2 15 4 25 5 11 7 19 4 19 -3 0 -10 -11 -16 -24z"/>
<path d="M924 1769 c-3 -6 1 -18 11 -27 16 -16 17 -16 7 4 -6 12 -8 24 -5 28
3 3 4 6 0 6 -3 0 -9 -5 -13 -11z"/>
<path d="M1175 1720 c-3 -5 -8 -19 -10 -30 -4 -23 22 -23 49 -1 15 12 15 15
-1 27 -22 16 -30 17 -38 4z m27 -15 c0 -5 -5 -11 -10 -13 -5 -1 -9 4 -9 13 0
9 4 14 9 13 5 -2 10 -8 10 -13z"/>
<path d="M1050 1705 c-10 -13 -9 -15 9 -15 11 0 21 4 21 9 0 18 -18 21 -30 6z"/>
<path d="M563 1686 c-63 -36 -134 -99 -129 -113 3 -7 0 -12 -7 -10 -18 3 -50
-71 -55 -129 -3 -41 1 -62 24 -108 65 -134 242 -237 493 -286 87 -17 221 -31
221 -23 0 12 -34 52 -40 48 -4 -3 -7 1 -6 8 0 6 -15 35 -34 64 -31 46 -40 52
-80 58 -55 8 -217 61 -248 81 -12 8 -28 12 -34 8 -7 -5 -8 -3 -3 6 6 10 4 12
-9 7 -9 -4 -15 -3 -12 2 8 13 -31 44 -45 35 -7 -4 -10 -3 -5 4 3 6 2 13 -4 17
-6 3 -17 20 -25 36 -14 26 -14 32 -2 44 8 8 18 11 21 7 4 -3 4 1 0 11 -8 21
-23 22 -31 1 -5 -13 -7 -13 -14 -2 -27 42 10 140 72 190 37 30 38 32 22 50
-20 23 -19 23 -70 -6z"/>
<path d="M1105 1701 c16 -8 17 -10 3 -10 -9 -1 -19 -5 -22 -10 -3 -5 5 -8 19
-7 31 1 30 29 0 33 -20 3 -20 3 0 -6z"/>
<path d="M1265 1690 c2 -33 22 -46 21 -14 -1 15 -6 29 -12 31 -6 2 -10 -6 -9
-17z"/>
<path d="M1672 1688 c15 -13 43 -58 63 -101 20 -42 46 -82 57 -88 18 -10 20
-18 15 -66 -7 -66 -25 -95 -68 -113 -27 -12 -36 -11 -58 1 -25 14 -29 13 -85
-23 -72 -46 -140 -72 -248 -94 l-84 -18 -54 -80 c-30 -43 -56 -83 -58 -88 -6
-15 221 15 309 41 203 60 331 140 396 249 23 39 28 58 28 117 0 63 -4 76 -33
122 -34 52 -109 117 -172 148 l-35 17 27 -24z"/>
<path d="M1379 1690 c-11 -7 -10 -10 3 -15 9 -4 24 -5 33 -3 13 3 13 5 -3 15
-11 6 -24 8 -33 3z"/>
<path d="M1303 1675 c0 -8 4 -15 9 -15 4 0 8 4 8 9 0 6 -4 12 -8 15 -5 3 -9
-1 -9 -9z"/>
<path d="M1645 1650 c10 -11 20 -18 23 -15 7 6 -18 35 -31 35 -5 0 -2 -9 8
-20z"/>
<path d="M1335 1646 c-12 -9 -15 -15 -7 -20 7 -4 12 -4 12 0 0 3 6 1 14 -5 10
-9 15 -8 19 3 9 23 -16 38 -38 22z"/>
<path d="M1100 1630 c-8 -5 -11 -12 -8 -16 4 -3 14 1 23 10 18 17 9 21 -15 6z"/>
<path d="M1555 1620 c3 -5 11 -10 16 -10 6 0 7 5 4 10 -3 6 -11 10 -16 10 -6
0 -7 -4 -4 -10z"/>
<path d="M1123 1600 c-11 -16 -10 -18 2 -14 8 4 15 12 15 20 0 19 -3 18 -17
-6z"/>
<path d="M823 1585 c0 -14 3 -27 7 -30 4 -3 7 9 6 25 -1 36 -13 40 -13 5z"/>
<path d="M1331 1584 c0 -11 3 -14 6 -6 3 7 2 16 -1 19 -3 4 -6 -2 -5 -13z"/>
<path d="M1218 1573 c7 -3 16 -2 19 1 4 3 -2 6 -13 5 -11 0 -14 -3 -6 -6z"/>
<path d="M1265 1570 c-3 -5 -2 -10 4 -10 5 0 13 5 16 10 3 6 2 10 -4 10 -5 0
-13 -4 -16 -10z"/>
<path d="M1690 1571 c0 -6 4 -13 10 -16 6 -3 7 1 4 9 -7 18 -14 21 -14 7z"/>
<path d="M864 1538 c3 -10 1 -18 -4 -18 -6 0 -10 5 -10 12 0 6 -3 8 -6 5 -9
-9 13 -34 36 -40 14 -3 17 -1 13 11 -4 9 -2 13 4 9 5 -3 10 0 10 8 0 11 -4 12
-13 4 -9 -7 -16 -5 -24 8 -10 16 -11 16 -6 1z"/>
<path d="M915 1500 c-3 -6 1 -7 9 -4 18 7 21 14 7 14 -6 0 -13 -4 -16 -10z"/>
<path d="M685 1480 c-13 -6 -15 -9 -5 -9 8 0 22 4 30 9 18 12 2 12 -25 0z"/>
<path d="M1050 1469 c9 -16 14 -18 26 -8 8 6 14 16 14 22 0 6 -7 2 -15 -9 -13
-17 -14 -17 -15 -1 0 9 -5 17 -10 17 -7 0 -7 -7 0 -21z"/>
<path d="M1730 1485 c0 -6 6 -17 13 -24 10 -11 7 -13 -14 -9 -19 3 -25 0 -26
-14 -1 -10 2 -18 8 -18 5 0 9 5 9 11 0 6 6 9 12 7 20 -7 43 21 29 35 -6 6 -11
7 -11 2 0 -6 -5 -3 -10 5 -5 8 -10 10 -10 5z"/>
<path d="M598 1473 c6 -2 18 -2 25 0 6 3 1 5 -13 5 -14 0 -19 -2 -12 -5z"/>
<path d="M920 1470 c0 -5 4 -10 9 -10 6 0 13 5 16 10 3 6 -1 10 -9 10 -9 0
-16 -4 -16 -10z"/>
<path d="M1468 1467 c8 -9 10 -21 7 -28 -13 -19 -24 -79 -14 -73 5 3 9 2 9 -3
0 -14 -17 -35 -26 -33 -5 1 -10 -3 -12 -9 -9 -26 27 -8 38 19 7 16 19 35 27
41 8 7 19 22 24 33 9 18 8 19 -3 5 -11 -14 -15 -14 -26 -3 -16 17 -15 22 5 26
13 2 11 7 -13 22 -22 15 -26 16 -16 3z m22 -82 c0 -5 -5 -3 -10 5 -5 8 -10 20
-10 25 0 6 5 3 10 -5 5 -8 10 -19 10 -25z"/>
<path d="M879 1458 c-11 -8 -10 -9 4 -4 9 3 17 1 17 -4 0 -9 -3 -12 -49 -50
-13 -11 -20 -20 -15 -20 5 0 25 14 43 31 34 31 55 33 30 2 -9 -11 -10 -14 -2
-9 7 4 18 16 24 28 8 15 8 19 0 14 -6 -4 -11 -3 -11 2 0 15 -25 21 -41 10z"/>
<path d="M618 1453 c7 -3 16 -2 19 1 4 3 -2 6 -13 5 -11 0 -14 -3 -6 -6z"/>
<path d="M830 1456 c0 -2 7 -7 16 -10 8 -3 12 -2 9 4 -6 10 -25 14 -25 6z"/>
<path d="M980 1438 c0 -5 4 -7 10 -3 5 3 7 -7 5 -26 l-4 -31 25 23 c26 24 32
35 12 23 -7 -5 -9 -2 -6 7 4 9 -2 14 -18 15 -13 1 -24 -2 -24 -8z m40 -22 c0
-3 -4 -8 -10 -11 -5 -3 -10 -1 -10 4 0 6 5 11 10 11 6 0 10 -2 10 -4z"/>
<path d="M1583 1443 c-7 -3 -13 -11 -13 -18 0 -16 57 -18 67 -2 3 5 0 7 -8 5
-8 -3 -18 1 -24 7 -5 7 -16 11 -22 8z m17 -13 c0 -5 -5 -10 -11 -10 -5 0 -7 5
-4 10 3 6 8 10 11 10 2 0 4 -4 4 -10z"/>
<path d="M1144 1424 c4 -12 2 -15 -9 -11 -8 4 -17 1 -21 -5 -5 -7 -2 -8 6 -3
10 6 11 2 7 -16 -3 -13 -2 -31 3 -39 8 -12 10 -11 11 8 2 35 3 40 12 48 4 4 7
2 7 -4 0 -7 4 -12 9 -12 5 0 4 11 -2 25 -13 27 -33 35 -23 9z"/>
<path d="M1262 1410 c-7 -11 -10 -20 -6 -20 7 0 34 27 34 34 0 13 -16 5 -28
-14z"/>
<path d="M1294 1394 c-4 -22 -9 -33 -11 -26 -3 6 -9 12 -14 12 -6 0 -7 -4 -4
-10 3 -5 1 -10 -4 -10 -6 0 -11 5 -11 11 0 6 -7 9 -15 5 -8 -3 -15 -1 -15 3 0
15 -35 5 -38 -11 -3 -17 26 -20 46 -5 6 5 13 6 13 1 1 -5 2 -13 4 -19 1 -5 3
-16 3 -24 2 -11 6 -10 22 4 20 18 46 92 36 102 -2 3 -8 -12 -12 -33z m-14 -43
c0 -5 -7 -12 -16 -15 -14 -5 -15 -4 -4 9 14 17 20 19 20 6z"/>
<path d="M1750 1420 c-13 -8 -12 -10 3 -10 9 0 17 5 17 10 0 12 -1 12 -20 0z"/>
<path d="M800 1391 c0 -7 -5 -9 -12 -5 -10 6 -10 5 -1 -8 7 -8 10 -18 6 -21
-3 -4 1 -7 10 -7 23 0 27 12 11 35 -8 10 -14 13 -14 6z"/>
<path d="M1082 1391 c-15 -9 -13 -42 3 -48 6 -2 10 10 10 27 1 16 1 30 0 30 0
0 -6 -4 -13 -9z"/>
<path d="M1740 1380 c-9 -13 -21 -18 -35 -15 -19 6 -19 5 -1 -6 15 -9 22 -7
39 10 12 11 19 23 16 25 -3 3 -11 -3 -19 -14z"/>
<path d="M875 1380 c-3 -5 -3 -10 1 -10 5 0 -8 -17 -27 -37 l-34 -38 33 30
c38 34 58 65 43 65 -5 0 -13 -4 -16 -10z"/>
<path d="M662 1366 c2 -10 14 -25 28 -33 17 -10 20 -11 9 -2 -8 8 -21 23 -28
34 -11 19 -12 19 -9 1z"/>
<path d="M957 1363 c5 -12 3 -14 -7 -8 -9 5 -11 4 -6 -4 4 -6 12 -9 17 -6 12
8 12 35 -1 35 -5 0 -6 -7 -3 -17z"/>
<path d="M716 1358 c3 -5 10 -6 15 -3 13 9 11 12 -6 12 -8 0 -12 -4 -9 -9z"/>
<path d="M1181 1322 c-17 -31 -13 -40 5 -14 9 13 14 26 11 29 -3 2 -10 -4 -16
-15z"/>
<path d="M915 1320 c-3 -5 -1 -10 4 -10 6 0 11 5 11 10 0 6 -2 10 -4 10 -3 0
-8 -4 -11 -10z"/>
<path d="M986 1312 c-3 -6 1 -15 8 -21 8 -7 17 -8 20 -3 3 6 -1 15 -8 21 -8 7
-17 8 -20 3z"/>
<path d="M1295 1299 c-5 -13 -15 -30 -24 -37 -14 -11 -13 -12 5 -3 30 15 44
35 35 50 -7 10 -11 8 -16 -10z"/>
<path d="M1390 1312 c0 -7 -4 -11 -8 -8 -4 2 -9 -5 -9 -17 -2 -21 -1 -22 13
-3 14 19 14 19 14 -1 0 -12 -8 -23 -20 -26 -11 -3 -20 0 -20 6 0 7 -5 5 -10
-3 -8 -12 -12 -12 -18 -2 -7 10 -12 9 -23 -4 -8 -10 -9 -15 -3 -11 6 3 23 -1
38 -9 33 -17 71 -20 46 -4 -13 8 -12 10 3 10 19 0 24 44 7 70 -7 11 -10 11
-10 2z"/>
<path d="M894 1302 c3 -6 -2 -15 -11 -21 -10 -6 -13 -11 -7 -11 20 0 37 27 23
36 -7 4 -9 3 -5 -4z"/>
<path d="M723 1284 c0 -12 44 -6 53 7 2 4 -8 7 -24 6 -16 -1 -29 -7 -29 -13z"/>
<path d="M1424 1275 c-3 -8 -4 -20 -2 -27 3 -7 7 -1 10 15 6 29 1 36 -8 12z"/>
<path d="M856 1247 c-16 -12 -16 -13 2 -14 10 -1 19 5 19 13 0 17 1 17 -21 1z"/>
<path d="M1229 1243 c-13 -16 -12 -17 4 -4 9 7 17 15 17 17 0 8 -8 3 -21 -13z"/>
<path d="M1270 1225 c-10 -12 -8 -13 10 -10 29 6 34 11 16 18 -8 3 -20 0 -26
-8z"/>
<path d="M741 886 c-13 -7 -19 -16 -14 -19 12 -8 53 3 53 14 0 15 -15 17 -39
5z"/>
<path d="M340 770 c0 -64 3 -80 15 -80 10 0 15 11 15 35 0 28 4 35 20 35 16 0
20 -7 20 -36 0 -28 3 -35 18 -32 14 3 17 16 20 81 3 72 1 77 -18 77 -16 0 -20
-6 -20 -31 0 -24 -4 -30 -17 -27 -11 2 -19 14 -21 31 -2 15 -9 27 -18 27 -11
0 -14 -17 -14 -80z"/>
<path d="M480 772 c0 -71 2 -78 20 -78 18 0 20 7 20 78 0 71 -2 78 -20 78 -18
0 -20 -7 -20 -78z"/>
<path d="M550 771 c0 -74 2 -80 20 -78 14 1 20 8 20 27 0 21 7 28 33 35 25 8
33 16 35 38 5 41 -14 57 -64 57 l-44 0 0 -79z m70 29 c0 -11 -7 -20 -15 -20
-8 0 -15 9 -15 20 0 11 7 20 15 20 8 0 15 -9 15 -20z"/>
<path d="M701 831 c-26 -26 -28 -92 -5 -115 44 -44 108 -22 120 41 10 54 -11
87 -58 91 -27 2 -43 -3 -57 -17z m74 -40 c6 -29 -8 -71 -23 -71 -26 0 -40 47
-26 84 11 28 42 19 49 -13z"/>
<path d="M842 774 l3 -77 33 -3 c66 -7 107 76 66 134 -12 17 -25 22 -60 22
l-45 0 3 -76z m74 20 c7 -29 -11 -78 -26 -69 -6 3 -10 26 -10 51 0 50 25 63
36 18z"/>
<path d="M990 770 c0 -64 3 -80 15 -80 10 0 15 10 15 29 0 43 17 47 30 7 8
-25 17 -34 31 -33 23 2 24 15 3 45 -14 20 -14 24 0 38 35 34 5 74 -55 74 l-39
0 0 -80z m63 43 c9 -9 -13 -34 -24 -27 -14 8 -11 34 4 34 8 0 17 -3 20 -7z"/>
<path d="M1140 830 c-23 -23 -27 -86 -7 -113 20 -27 69 -32 97 -9 33 27 36
106 6 128 -28 20 -73 17 -96 -6z m74 -34 c8 -31 -9 -76 -29 -76 -18 0 -29 41
-21 75 8 33 42 34 50 1z"/>
<path d="M1296 833 c-2 -10 -6 -45 -8 -78 -2 -48 0 -60 12 -60 10 0 17 13 20
40 l6 40 12 -42 c7 -25 19 -43 27 -43 8 0 20 18 27 43 l12 42 5 -40 c4 -29 11
-41 25 -43 17 -4 18 0 13 34 -4 22 -7 58 -7 82 0 38 -2 42 -25 42 -20 0 -26
-7 -36 -42 l-13 -43 -9 43 c-8 34 -14 42 -33 42 -13 0 -25 -7 -28 -17z"/>
<path d="M1494 829 c-28 -31 -25 -96 5 -120 53 -43 111 -9 111 64 0 30 -6 49
-18 60 -26 24 -75 21 -98 -4z m71 -59 c0 -38 -3 -45 -20 -45 -15 0 -21 8 -23
33 -4 45 4 64 25 60 14 -3 18 -13 18 -48z"/>
<path d="M1690 769 l0 -82 41 6 c56 7 72 26 72 83 0 56 -18 74 -75 74 l-38 0
0 -81z m70 6 c0 -33 -4 -45 -15 -45 -11 0 -15 12 -15 45 0 33 4 45 15 45 11 0
15 -12 15 -45z"/>
<path d="M1832 773 l3 -78 43 -3 c37 -3 42 -1 42 17 0 16 -6 21 -25 21 -16 0
-25 6 -25 15 0 8 9 15 20 15 11 0 20 7 20 15 0 8 -9 15 -20 15 -11 0 -20 7
-20 15 0 9 9 15 25 15 16 0 25 6 25 15 0 11 -12 15 -45 15 l-46 0 3 -77z"/>
<path d="M948 662 c-543 -2 -608 -4 -608 -18 0 -14 65 -15 630 -13 608 2 631
2 651 -17 21 -19 21 -19 18 1 -5 23 -12 22 151 24 109 1 130 3 130 16 0 13
-25 15 -182 13 -101 -2 -456 -4 -790 -6z"/>
<path d="M1596 605 c4 -8 10 -15 15 -15 4 0 6 7 3 15 -4 8 -10 15 -15 15 -4 0
-6 -7 -3 -15z"/>
<path d="M341 537 c0 -12 3 -16 6 -9 2 6 17 12 31 12 21 0 24 -2 12 -10 -10
-6 -11 -10 -2 -10 9 0 12 -27 12 -101 0 -72 3 -98 11 -93 15 9 7 200 -9 216
-6 6 -22 12 -36 13 -21 3 -26 -1 -25 -18z"/>
<path d="M421 544 c0 -11 3 -14 6 -6 3 7 2 16 -1 19 -3 4 -6 -2 -5 -13z"/>
<path d="M460 551 c0 -5 7 -12 16 -15 14 -5 15 -4 4 9 -14 17 -20 19 -20 6z"/>
<path d="M511 544 c0 -11 3 -14 6 -6 3 7 2 16 -1 19 -3 4 -6 -2 -5 -13z"/>
<path d="M700 556 c0 -2 7 -7 16 -10 8 -3 12 -2 9 4 -6 10 -25 14 -25 6z"/>
<path d="M850 553 c-29 -6 -62 -32 -54 -44 2 -4 12 -5 21 -2 11 5 14 3 9 -6
-5 -7 -18 -10 -30 -7 -18 4 -18 2 7 -19 16 -14 27 -34 27 -50 0 -28 -14 -33
-28 -8 -8 13 -10 10 -10 -13 0 -27 12 -43 31 -44 5 0 5 5 2 10 -4 6 -1 17 5
25 13 16 11 104 -2 121 -6 8 1 15 22 22 16 6 30 13 30 16 0 4 -1 5 -2 5 -2 -1
-14 -4 -28 -6z"/>
<path d="M893 546 c-4 -8 -17 -16 -28 -19 -15 -4 -14 -5 8 -6 18 -1 27 4 27
15 0 11 6 14 23 9 17 -5 19 -4 7 4 -20 14 -27 14 -37 -3z"/>
<path d="M1000 547 c0 -8 7 -14 15 -14 8 0 15 6 15 14 0 7 -7 13 -15 13 -8 0
-15 -6 -15 -13z"/>
<path d="M1111 547 c29 -22 40 -57 37 -116 -2 -33 -6 -57 -10 -55 -3 2 -4 29
-1 59 4 38 2 55 -6 55 -6 0 -12 -19 -12 -47 -2 -47 -2 -47 -9 -13 l-7 35 -2
-39 c-1 -26 5 -43 16 -51 20 -15 10 -50 -12 -41 -8 3 -15 1 -15 -4 0 -20 29
-9 49 19 17 24 21 44 21 114 0 88 -5 98 -48 97 -15 -1 -16 -2 -1 -13z"/>
<path d="M1247 553 c-18 -17 -5 -33 28 -33 34 0 34 1 18 20 -18 20 -34 25 -46
13z"/>
<path d="M1372 531 c-7 -19 -10 -36 -8 -38 2 -3 7 5 11 16 7 23 25 29 25 9 0
-9 4 -8 10 2 7 10 9 -6 6 -52 -2 -38 0 -65 5 -62 5 3 9 -14 8 -38 -1 -37 -2
-40 -10 -18 l-8 25 2 -25 c1 -17 8 -25 22 -26 18 -1 20 6 21 60 1 34 -1 53 -3
44 -9 -35 -34 -10 -32 30 0 14 2 13 9 -3 6 -13 7 -1 3 35 -3 30 -10 60 -16 65
-7 7 -8 6 -3 -2 4 -8 1 -13 -8 -13 -8 0 -16 6 -18 12 -3 7 -10 -3 -16 -21z"/>
<path d="M1747 540 c-4 -14 0 -20 11 -20 15 0 15 -2 2 -10 -13 -8 -13 -10 2
-10 12 0 15 -5 11 -16 -4 -11 -2 -15 7 -12 15 5 23 38 9 38 -6 0 -8 4 -5 9 9
14 -4 41 -19 41 -7 0 -15 -9 -18 -20z"/>
<path d="M1875 550 c3 -5 12 -7 20 -3 21 7 19 13 -6 13 -11 0 -18 -4 -14 -10z"/>
<path d="M673 531 c1 -12 6 -21 12 -21 5 0 3 -5 -5 -10 -13 -8 -12 -10 3 -10
9 0 17 5 17 10 0 6 7 10 15 10 21 0 19 16 -2 24 -10 3 -23 9 -30 12 -7 3 -11
-3 -10 -15z"/>
<path d="M1441 534 c0 -11 3 -14 6 -6 3 7 2 16 -1 19 -3 4 -6 -2 -5 -13z"/>
<path d="M1570 528 c0 -4 9 -8 20 -8 11 0 20 4 20 8 0 4 -9 8 -20 8 -11 0 -20
-4 -20 -8z"/>
<path d="M1888 535 c-8 -8 4 -65 12 -60 5 3 8 19 8 35 -1 28 -8 37 -20 25z"/>
<path d="M440 523 c-12 -3 -15 -23 -15 -103 0 -60 4 -100 10 -100 6 0 9 32 7
81 -3 60 0 84 10 90 10 7 10 9 -2 9 -13 0 -13 1 0 10 17 10 12 18 -10 13z"/>
<path d="M556 514 c-3 -9 -6 -25 -5 -37 1 -16 4 -12 12 13 l12 35 3 -49 c4
-59 -4 -88 -18 -66 -9 13 -9 -10 -1 -62 1 -10 45 -11 54 -2 12 13 -5 25 -18
14 -8 -7 -20 -8 -26 -4 -9 5 -6 10 9 15 12 5 22 14 21 21 0 10 -2 10 -6 1 -2
-7 -9 -13 -14 -13 -6 0 -7 6 -2 13 4 6 10 40 13 75 5 53 3 62 -11 62 -9 0 -20
-7 -23 -16z"/>
<path d="M1620 520 c0 -5 -9 -10 -20 -10 -13 0 -18 -5 -14 -14 3 -8 12 -12 21
-9 8 3 19 0 23 -8 13 -20 19 -8 13 24 -5 25 -23 39 -23 17z"/>
<path d="M1805 510 c1 -10 7 -25 14 -33 6 -8 11 -33 10 -56 -3 -50 5 -60 31
-36 20 18 20 17 20 -13 0 -42 16 -41 24 1 13 74 15 102 4 84 -5 -10 -7 -24 -4
-32 3 -9 -2 -13 -13 -12 -13 1 -17 7 -14 22 3 17 2 17 -6 -2 -12 -27 -33 -31
-30 -5 4 23 -10 62 -21 62 -5 0 -7 6 -4 14 3 8 1 16 -4 20 -5 3 -8 -3 -7 -14z"/>
<path d="M990 510 c-13 -8 -12 -10 3 -10 9 0 17 5 17 10 0 12 -1 12 -20 0z"/>
<path d="M1108 503 c7 -3 16 -2 19 1 4 3 -2 6 -13 5 -11 0 -14 -3 -6 -6z"/>
<path d="M1283 472 l0 -37 14 34 c8 18 12 36 9 39 -4 3 -6 -1 -6 -9 0 -11 -2
-11 -8 -2 -5 8 -8 -2 -9 -25z"/>
<path d="M1237 480 c3 -12 0 -20 -7 -20 -15 0 -5 -85 13 -111 10 -13 12 1 12
67 0 57 -4 84 -12 84 -6 0 -9 -9 -6 -20z"/>
<path d="M1554 489 c-3 -6 1 -18 10 -27 10 -11 16 -12 16 -4 0 7 -5 12 -11 12
-6 0 -9 7 -5 15 6 17 0 20 -10 4z"/>
<path d="M722 465 c0 -16 2 -22 5 -12 2 9 2 23 0 30 -3 6 -5 -1 -5 -18z"/>
<path d="M988 431 c-5 -48 -3 -70 8 -85 10 -15 14 -16 14 -5 0 8 -6 21 -12 27
-9 9 -10 15 -2 20 7 4 9 25 5 57 l-7 50 -6 -64z"/>
<path d="M1750 480 c0 -8 5 -22 10 -30 9 -13 10 -13 10 0 0 8 -5 22 -10 30 -9
13 -10 13 -10 0z"/>
<path d="M1610 467 c0 -5 5 -17 10 -27 8 -15 6 -21 -8 -29 -20 -10 -41 2 -60
34 -6 11 -12 14 -12 8 0 -7 9 -22 20 -33 15 -15 16 -20 5 -20 -7 0 -19 8 -25
18 -11 16 -11 15 -5 -2 3 -11 0 -23 -7 -28 -8 -5 -1 -6 17 -2 17 3 42 7 58 7
15 1 27 6 27 10 0 5 4 6 9 3 16 -10 21 25 6 40 -8 9 -15 12 -15 7 0 -4 -5 -1
-10 7 -5 8 -10 11 -10 7z"/>
<path d="M772 430 c0 -19 2 -27 5 -17 2 9 2 25 0 35 -3 9 -5 1 -5 -18z"/>
<path d="M1022 435 c0 -16 2 -22 5 -12 2 9 2 23 0 30 -3 6 -5 -1 -5 -18z"/>
<path d="M1773 435 c-9 -20 -8 -25 3 -25 8 0 14 10 14 25 0 31 -2 31 -17 0z"/>
<path d="M682 432 c-10 -3 -10 -7 -1 -18 8 -10 8 -14 0 -14 -6 0 -11 -5 -11
-11 0 -5 5 -7 10 -4 6 3 10 -2 11 -12 0 -14 2 -15 6 -3 3 8 9 17 13 20 11 8
-14 47 -28 42z"/>
<path d="M1340 425 c-1 -5 -3 -26 -5 -45 l-3 -35 15 29 c11 20 17 25 23 16 6
-9 10 -6 15 9 4 13 4 25 1 28 -3 4 -6 1 -6 -5 0 -16 -27 -15 -33 1 -3 6 -6 8
-7 2z"/>
<path d="M1671 414 c0 -11 3 -14 6 -6 3 7 2 16 -1 19 -3 4 -6 -2 -5 -13z"/>
<path d="M1307 386 c-4 -10 -5 -21 -2 -24 9 -9 17 6 13 25 -3 17 -4 17 -11 -1z"/>
<path d="M1015 380 c-3 -5 -1 -10 4 -10 6 0 11 5 11 10 0 6 -2 10 -4 10 -3 0
-8 -4 -11 -10z"/>
<path d="M1658 383 c7 -3 16 -2 19 1 4 3 -2 6 -13 5 -11 0 -14 -3 -6 -6z"/>
<path d="M1740 355 c0 -29 4 -35 21 -35 11 0 18 4 14 9 -3 5 -1 12 5 16 5 3
10 13 10 21 0 8 -4 13 -9 9 -5 -3 -12 -1 -16 5 -13 21 -25 9 -25 -25z"/>
<path d="M841 370 c-2 -8 -4 -23 -6 -32 -4 -21 15 -24 33 -6 9 9 12 9 12 0 0
-7 9 -12 20 -12 11 0 20 4 20 10 0 5 -7 7 -15 4 -8 -4 -15 -2 -15 4 0 5 -7 13
-16 16 -8 3 -12 2 -9 -4 3 -6 2 -10 -4 -10 -5 0 -12 10 -14 23 -2 12 -5 15 -6
7z"/>
<path d="M1560 372 c0 -5 14 -7 30 -4 17 2 30 6 30 8 0 2 -13 4 -30 4 -16 0
-30 -4 -30 -8z"/>
<path d="M912 361 c-11 -6 -9 -9 6 -13 15 -4 19 -2 15 8 -6 16 -4 16 -21 5z"/>
<path d="M1095 360 c-3 -5 1 -10 10 -10 9 0 13 5 10 10 -3 6 -8 10 -10 10 -2
0 -7 -4 -10 -10z"/>
<path d="M1510 362 c0 -6 5 -14 12 -18 8 -5 6 -10 -8 -15 -16 -6 -15 -7 6 -6
20 1 26 7 27 27 1 14 -1 19 -4 12 -4 -10 -8 -10 -19 -1 -9 8 -14 8 -14 1z"/>
<path d="M1640 348 c0 -12 3 -18 7 -14 11 10 12 36 2 36 -5 0 -9 -10 -9 -22z"/>
<path d="M630 352 c0 -5 -10 -13 -21 -18 -19 -9 -17 -10 15 -11 20 -1 36 3 36
8 0 4 -8 5 -17 2 -16 -6 -16 -5 -4 10 9 11 10 17 2 17 -6 0 -11 -4 -11 -8z"/>
<path d="M698 353 c-9 -2 -19 -10 -21 -17 -4 -11 0 -11 19 -2 13 6 24 14 24
19 0 4 -1 6 -2 6 -2 -1 -10 -3 -20 -6z"/>
<path d="M1023 345 c-8 -22 5 -31 20 -15 9 10 9 11 0 6 -7 -4 -13 -3 -13 3 0
5 6 12 13 14 9 4 9 6 -1 6 -7 1 -15 -6 -19 -14z"/>
<path d="M1060 351 c0 -6 5 -13 10 -16 6 -3 10 1 10 9 0 9 -4 16 -10 16 -5 0
-10 -4 -10 -9z"/>
<path d="M1352 340 c0 -14 2 -19 5 -12 2 6 2 18 0 25 -3 6 -5 1 -5 -13z"/>
<path d="M1211 334 c0 -11 3 -14 6 -6 3 7 2 16 -1 19 -3 4 -6 -2 -5 -13z"/>
<path d="M1666 335 c-3 -8 -1 -15 4 -15 6 0 10 7 10 15 0 8 -2 15 -4 15 -2 0
-6 -7 -10 -15z"/>
<path d="M1690 335 c0 -8 4 -15 10 -15 5 0 7 7 4 15 -4 8 -8 15 -10 15 -2 0
-4 -7 -4 -15z"/>
</g>
</svg>
