<?xml version="1.0" standalone="no"?>
<!DOCTYPE svg PUBLIC "-//W3C//DTD SVG 20010904//EN"
 "http://www.w3.org/TR/2001/REC-SVG-20010904/DTD/svg10.dtd">
<svg version="1.0" xmlns="http://www.w3.org/2000/svg"
 width="900.000000pt" height="900.000000pt" viewBox="0 0 900.000000 900.000000"
 preserveAspectRatio="xMidYMid meet">

<g transform="translate(0.000000,900.000000) scale(0.100000,-0.100000)"
fill="#000000" stroke="none">
<path d="M3410 6696 l0 -665 -57 -16 c-137 -38 -329 -136 -413 -212 -125 -113
-153 -258 -62 -332 77 -64 244 -98 420 -85 81 6 92 9 92 25 0 11 -3 18 -7 17
-5 -1 -44 1 -88 6 -181 17 -292 72 -315 158 -18 65 29 140 139 221 63 47 217
127 243 127 9 0 20 5 23 10 3 6 10 10 16 10 5 0 9 -307 9 -800 l0 -800 503 0
504 0 12 42 c46 153 165 306 342 438 144 107 335 194 486 220 90 16 237 9 281
-14 l32 -17 0 369 0 369 -58 6 c-99 8 -198 71 -252 158 -17 28 -29 53 -26 56
3 3 35 -14 72 -37 36 -23 70 -38 74 -33 5 4 13 25 19 47 13 50 -6 98 -51 126
-31 20 -42 21 -163 15 l-130 -6 30 25 c43 35 107 51 205 51 73 0 93 -4 142
-28 45 -22 61 -36 77 -71 12 -23 21 -56 21 -72 -1 -25 -21 -92 -44 -146 -6
-12 2 -23 31 -42 40 -28 69 -35 57 -13 -14 22 100 -104 153 -171 134 -168 460
-638 518 -749 39 -73 32 -110 -29 -150 -53 -36 -99 -42 -134 -17 -25 17 -28 8
-10 -33 19 -41 39 -59 75 -66 33 -6 93 9 93 23 0 4 11 10 24 14 35 9 104 88
111 130 8 42 -29 131 -86 206 -75 98 -109 151 -104 159 10 18 108 34 167 27
83 -8 149 -38 327 -145 144 -86 181 -100 181 -69 0 18 -81 86 -168 142 -164
106 -328 150 -492 130 -95 -11 -75 -26 -175 132 -68 110 -72 115 -186 243 -96
108 -181 186 -230 212 l-39 19 0 760 0 760 -1080 0 -1080 0 0 -664z m1033
-531 c101 -48 124 -164 51 -262 -13 -17 -24 -34 -24 -37 0 -3 28 12 63 34 157
99 303 121 447 67 96 -36 270 -163 255 -187 -12 -19 -43 -10 -141 39 -111 55
-203 81 -288 81 -67 0 -181 -24 -246 -52 l-45 -20 28 -22 c15 -12 27 -24 27
-27 0 -7 -86 6 -129 19 -36 12 -88 49 -126 89 -28 31 -79 122 -72 130 3 2 31
-14 62 -38 64 -48 75 -47 107 12 21 38 18 82 -8 110 -27 30 -103 42 -183 30
-38 -6 -72 -11 -74 -11 -3 0 -7 9 -10 20 -7 28 19 40 111 48 90 9 143 3 195
-23z m-521 -109 c30 -11 86 -52 161 -117 323 -282 428 -326 657 -280 158 31
454 70 465 60 17 -16 -7 -27 -180 -79 -93 -28 -176 -55 -185 -60 -37 -20 -148
-40 -218 -40 -53 0 -101 8 -159 25 -81 25 -133 60 -238 158 -11 11 -47 40 -80
65 -33 26 -68 54 -78 63 -30 27 -147 93 -211 118 -105 41 -320 39 -420 -4 -16
-7 -18 -5 -11 26 4 19 12 39 19 46 37 39 383 53 478 19z m-272 -413 c264 -85
333 -216 184 -349 -51 -46 -208 -115 -296 -130 -143 -25 -158 2 -28 49 136 48
223 114 244 184 8 24 -15 86 -42 117 -23 26 -137 98 -192 121 -55 23 -64 30
-55 44 9 15 56 6 185 -36z"/>
<path d="M6353 5869 c8 -123 76 -182 203 -178 l67 2 106 -109 c296 -302 471
-531 471 -614 0 -21 -7 -42 -17 -51 -10 -9 -31 -33 -46 -53 -33 -43 -48 -44
-127 -11 -73 31 -95 33 -81 7 19 -36 86 -92 127 -108 39 -15 46 -15 91 0 44
15 52 23 96 95 40 67 47 87 47 131 0 96 -16 126 -123 233 -54 55 -110 118
-124 141 -93 148 -290 352 -486 505 -29 23 -42 0 -23 -38 9 -17 21 -42 26 -57
l10 -25 -38 21 c-41 23 -123 98 -160 145 l-23 30 4 -66z"/>
<path d="M6195 5773 c-71 -12 -190 -25 -263 -29 -112 -6 -132 -10 -130 -22 4
-22 106 -52 198 -59 59 -4 92 -1 150 15 72 20 190 76 190 90 -1 25 -23 26
-145 5z"/>
<path d="M2215 5294 c-113 -14 -192 -31 -294 -64 -128 -42 -231 -87 -231 -100
0 -20 24 -18 131 9 198 51 308 64 507 57 564 -19 590 -19 724 3 161 28 232 50
236 75 4 16 0 18 -27 13 -17 -4 -93 -12 -168 -18 -151 -13 -340 -8 -578 16
-142 14 -232 16 -300 9z"/>
<path d="M5425 5014 c-11 -3 -47 -10 -80 -16 -277 -53 -621 -310 -734 -549
-17 -37 -31 -72 -31 -78 0 -8 140 -11 495 -11 l495 0 0 315 c0 173 3 315 6
315 3 0 28 -22 55 -48 27 -26 74 -63 104 -81 110 -67 273 -119 289 -93 9 15
-5 25 -125 91 -250 138 -293 158 -324 151 -16 -3 -46 -2 -65 2 -37 8 -52 8
-85 2z"/>
<path d="M3683 3948 c-54 -22 -73 -35 -73 -49 0 -23 24 -24 118 -8 l64 11 -6
30 c-3 17 -6 34 -6 39 0 14 -20 9 -97 -23z"/>
<path d="M3555 3828 c-80 -29 -136 -90 -164 -175 -25 -77 -26 -118 -4 -196 22
-81 96 -158 173 -181 68 -20 109 -20 183 1 77 21 155 94 180 167 47 139 -11
308 -126 368 -49 25 -193 35 -242 16z m172 -83 c73 -31 107 -91 108 -190 0
-91 -22 -142 -78 -179 -37 -24 -50 -27 -107 -24 -79 4 -119 28 -149 91 -31 64
-29 178 3 231 46 77 139 106 223 71z"/>
<path d="M5285 3817 c-172 -82 -218 -311 -93 -461 70 -83 181 -113 298 -80 83
23 155 91 184 172 38 108 5 255 -72 324 -54 48 -92 61 -182 65 -74 4 -92 1
-135 -20z m218 -84 c69 -41 103 -156 73 -254 -27 -91 -76 -129 -167 -129 -99
0 -159 52 -179 158 -27 145 60 260 188 248 29 -2 67 -13 85 -23z"/>
<path d="M6690 3831 c-114 -35 -182 -130 -188 -261 -7 -141 56 -245 174 -290
107 -40 250 -8 319 73 64 74 86 196 56 302 -19 64 -106 155 -167 173 -45 13
-154 15 -194 3z m174 -91 c64 -31 90 -79 94 -175 3 -69 0 -86 -20 -124 -34
-63 -66 -84 -138 -89 -72 -5 -109 8 -150 54 -38 43 -54 104 -47 178 6 67 42
127 92 157 41 24 119 24 169 -1z"/>
<path d="M1920 3790 c0 -38 2 -40 30 -40 l30 0 0 -200 0 -200 -30 0 c-28 0
-30 -2 -30 -40 l0 -40 110 0 110 0 0 40 c0 38 -2 40 -30 40 l-30 0 0 85 0 85
130 0 130 0 0 -85 0 -85 -30 0 c-28 0 -30 -2 -30 -40 l0 -40 110 0 110 0 0 39
c0 36 -3 40 -27 43 l-28 3 -3 198 -2 197 30 0 c28 0 30 2 30 40 l0 40 -110 0
-110 0 0 -40 c0 -38 2 -40 29 -40 l29 0 4 -71 c2 -39 1 -73 -1 -75 -2 -2 -62
-4 -133 -4 l-128 0 0 74 c0 74 0 75 28 78 23 3 27 8 30 41 l3 37 -110 0 -111
0 0 -40z"/>
<path d="M2577 3823 c-2 -5 -3 -21 -3 -38 1 -26 5 -30 34 -33 l32 -3 0 -199 0
-199 -32 -3 c-30 -3 -33 -6 -33 -38 l1 -35 112 -3 112 -3 0 40 c0 37 -2 40
-31 43 l-32 3 -1 197 -1 197 30 3 c27 3 30 7 33 41 l3 37 -110 0 c-60 0 -112
-3 -114 -7z"/>
<path d="M2870 3791 c0 -37 2 -40 33 -43 l32 -3 0 -195 0 -195 -32 -3 c-31 -3
-33 -6 -33 -43 l0 -39 125 0 125 0 0 39 c0 40 0 40 -42 43 l-43 3 -3 58 -3 57
68 0 c90 0 135 14 177 53 89 84 61 247 -50 293 -24 10 -79 14 -194 14 l-160 0
0 -39z m304 -51 c66 -25 66 -149 -1 -179 -13 -6 -51 -11 -83 -11 l-60 0 0 100
0 100 59 0 c33 0 71 -4 85 -10z"/>
<path d="M3992 3793 c3 -35 6 -38 33 -38 l30 -1 0 -199 0 -200 -33 -3 c-32 -3
-33 -5 -30 -40 l3 -37 156 -3 c140 -2 163 0 214 19 66 25 113 68 146 135 18
39 23 64 22 129 0 96 -22 153 -79 206 -65 60 -101 69 -295 69 l-170 0 3 -37z
m351 -59 c19 -9 46 -35 61 -57 23 -36 26 -51 26 -122 0 -144 -53 -197 -199
-199 l-76 -1 -3 198 -2 197 79 0 c53 0 92 -5 114 -16z"/>
<path d="M4592 3793 c3 -33 7 -39 32 -43 17 -3 29 -8 28 -12 -1 -5 -2 -93 -2
-198 l0 -190 -30 0 c-28 0 -30 -2 -30 -40 l0 -40 110 0 110 0 0 39 c0 36 -3
40 -27 43 -27 3 -28 5 -31 71 l-3 67 48 0 48 0 56 -108 57 -107 63 0 64 0 3
38 c3 35 2 37 -26 37 -35 0 -49 15 -93 99 -25 48 -30 66 -20 69 7 2 28 18 47
34 61 54 69 157 16 220 -43 51 -73 58 -257 58 l-166 0 3 -37z m318 -56 c21
-10 25 -21 28 -63 5 -78 -15 -96 -111 -102 l-77 -5 0 92 0 91 68 0 c37 0 78
-6 92 -13z"/>
<path d="M5740 3790 c0 -39 1 -40 35 -40 l35 0 -2 -197 -3 -198 -33 -3 c-32
-3 -33 -5 -30 -40 l3 -37 105 0 105 0 -1 35 c0 30 -4 35 -27 38 l-27 3 0 136
c0 75 2 134 5 132 6 -7 67 -118 116 -214 70 -135 76 -133 173 55 43 83 82 150
88 150 5 0 7 -7 4 -16 -3 -9 -6 -67 -6 -130 l0 -114 -25 0 c-22 0 -25 -4 -25
-40 l0 -40 105 0 105 0 0 39 c0 36 -3 40 -27 43 l-28 3 -3 197 -2 197 32 3
c30 3 33 6 36 41 l3 37 -78 0 -78 0 -95 -185 c-52 -101 -99 -184 -103 -182 -5
1 -52 83 -106 182 l-98 180 -76 3 -77 3 0 -41z"/>
<path d="M2514 2911 c-2 -2 -4 -21 -4 -42 0 -35 2 -38 32 -41 l31 -3 1 -192 1
-193 -33 0 c-33 0 -33 0 -30 -42 l3 -43 200 -2 c110 -2 205 0 211 5 6 4 15 42
19 85 l7 77 -40 0 c-39 0 -40 -1 -47 -40 l-7 -40 -94 0 -94 0 0 78 0 77 122 0
123 0 0 40 0 40 -122 3 -123 3 0 74 0 75 90 0 90 0 6 -40 c6 -39 8 -40 45 -40
l39 0 -1 43 c0 23 -3 59 -7 80 l-7 38 -203 2 c-112 1 -206 0 -208 -2z"/>
<path d="M4230 2873 c0 -41 1 -43 30 -43 l30 0 0 -195 0 -195 -30 0 c-16 0
-30 -3 -31 -7 0 -5 -2 -19 -3 -33 -6 -50 -7 -50 209 -50 l203 0 8 88 c5 48 9
92 9 97 0 6 -18 10 -40 10 l-40 0 -8 -52 -9 -53 -84 0 -84 0 -1 170 c-1 94 -2
180 -2 193 -1 18 5 23 38 27 38 5 40 7 43 42 l3 37 -120 3 -121 3 0 -42z"/>
<path d="M4703 2903 c-2 -6 -3 -24 -1 -40 2 -22 9 -29 30 -31 33 -4 34 -7 30
-224 l-3 -167 -27 -3 c-24 -3 -27 -7 -27 -43 l0 -40 204 -3 c113 -1 208 1 212
5 4 5 10 43 14 86 l7 77 -41 0 c-40 0 -41 -1 -47 -40 l-7 -40 -93 0 -94 0 0
78 0 77 102 -3 c142 -3 150 0 146 46 l-3 37 -122 3 -123 3 0 74 0 75 90 0 90
0 6 -40 c6 -39 7 -40 50 -40 42 0 43 0 39 33 -3 17 -7 53 -10 79 l-6 47 -206
3 c-150 2 -207 0 -210 -9z"/>
<path d="M5214 2911 c-2 -2 -4 -22 -4 -43 0 -37 1 -38 35 -38 l35 0 0 -195 0
-195 -36 0 -35 0 3 -42 3 -43 110 0 110 0 0 40 c0 38 -2 40 -33 43 l-33 3 3
67 3 67 43 0 43 0 55 -105 c31 -58 61 -108 67 -113 7 -4 37 -6 67 -5 l55 3 0
40 c0 38 -1 40 -35 43 -33 3 -38 8 -75 79 -32 61 -37 77 -25 81 8 3 32 23 54
45 38 40 38 40 34 113 -4 78 -24 114 -78 137 -24 10 -357 27 -366 18z m314
-97 c32 -22 43 -55 31 -97 -12 -45 -57 -67 -133 -67 l-56 0 0 90 0 90 68 0
c46 0 75 -5 90 -16z"/>
<path d="M5750 2873 c0 -42 0 -43 35 -43 l35 0 0 -194 0 -195 -32 -3 c-31 -3
-33 -5 -33 -43 l0 -40 103 -3 102 -3 0 46 c0 43 -1 45 -29 45 l-29 0 4 127 c2
70 6 128 7 130 2 1 41 -67 86 -152 62 -115 88 -155 102 -155 19 0 55 58 134
218 22 45 43 82 48 82 4 0 7 -56 7 -125 l0 -125 -25 0 c-23 0 -25 -4 -25 -45
l0 -46 103 3 102 3 0 40 c0 38 -2 40 -33 43 l-33 3 3 192 3 192 35 5 c33 5 35
7 35 44 l0 38 -75 0 c-87 0 -67 22 -180 -201 -38 -75 -75 -144 -83 -155 -13
-18 -15 -17 -34 15 -11 19 -44 79 -73 134 -29 55 -66 123 -82 152 l-29 51 -75
4 -74 3 0 -42z"/>
<path d="M6663 2896 c-61 -29 -104 -71 -135 -135 -35 -71 -33 -186 5 -263 31
-62 90 -118 146 -137 43 -14 154 -14 205 0 46 13 127 86 151 135 9 19 21 61
27 94 23 123 -44 254 -157 306 -70 33 -170 33 -242 0z m179 -66 c46 -13 105
-77 114 -124 3 -20 5 -67 2 -105 -3 -55 -9 -75 -31 -104 -53 -69 -177 -87
-249 -36 -66 48 -93 168 -58 261 36 96 119 136 222 108z"/>
<path d="M1920 2870 c0 -38 2 -40 30 -40 l30 0 0 -195 0 -195 -30 0 c-29 0
-30 -2 -30 -46 l0 -46 168 4 c142 3 174 7 212 25 104 47 153 130 154 258 0 96
-23 157 -81 210 -57 53 -111 65 -295 65 l-158 0 0 -40z m343 -56 c39 -21 50
-32 73 -74 25 -47 25 -160 0 -213 -31 -63 -67 -81 -168 -85 l-88 -4 0 196 0
196 75 0 c51 0 87 -5 108 -16z"/>
<path d="M3192 2873 c3 -35 6 -38 36 -41 l32 -3 0 -195 0 -194 -36 0 -35 0 3
-42 3 -43 123 -3 122 -3 0 46 0 45 -45 0 -45 0 0 55 0 55 73 0 c137 0 220 66
221 178 1 77 -31 134 -91 162 -37 17 -63 20 -203 20 l-161 0 3 -37z m307 -58
c34 -17 41 -33 41 -88 -1 -71 -36 -97 -129 -97 l-61 0 0 100 0 100 60 0 c34 0
74 -7 89 -15z"/>
<path d="M3760 2870 l0 -40 41 0 c22 0 39 -4 37 -9 -1 -4 -39 -92 -83 -194
-71 -166 -83 -186 -105 -189 -22 -3 -25 -8 -25 -43 l0 -40 100 0 100 0 3 42
c3 39 2 42 -26 45 -28 3 -28 3 -15 36 l13 32 105 0 c104 0 106 0 115 -26 14
-37 13 -42 -12 -46 -20 -3 -23 -9 -23 -43 l0 -40 101 -3 102 -3 4 35 c5 47 0
56 -30 56 -24 0 -30 7 -51 63 -14 34 -57 139 -97 232 l-73 170 -90 3 -91 3 0
-41z m166 -137 c15 -37 54 -144 54 -150 0 -2 -34 -3 -75 -3 -41 0 -75 2 -75 5
0 2 13 37 28 77 16 40 32 81 35 91 9 25 15 21 33 -20z"/>
<path d="M4410 1853 c-19 -1 -114 -12 -210 -23 -96 -11 -292 -31 -435 -45
-143 -14 -276 -28 -295 -32 -34 -6 57 -17 605 -72 110 -11 248 -26 308 -33
116 -13 57 -18 757 57 124 13 265 27 314 31 101 8 95 18 -14 28 -73 6 -517 51
-795 81 -136 15 -162 15 -235 8z"/>
</g>
</svg>
